<svg version="1.1" id="Layer_1" xmlns="http://www.w3.org/2000/svg" xmlns:xlink="http://www.w3.org/1999/xlink" x="0px" y="0px"
	 width="100%" viewBox="0 0 500 500" enable-background="new 0 0 500 500" xml:space="preserve">
<path fill="#000000" opacity="1.000000" stroke="none" 
	d="
M326.000000,501.000000 
	C217.333359,501.000000 109.166718,501.000000 1.000058,501.000000 
	C1.000039,334.333405 1.000039,167.666794 1.000019,1.000148 
	C167.666565,1.000098 334.333130,1.000098 500.999756,1.000049 
	C500.999847,167.666519 500.999847,334.333038 500.999939,500.999786 
	C442.833344,501.000000 384.666656,501.000000 326.000000,501.000000 
M299.106537,239.647827 
	C299.185669,240.117844 299.264832,240.587860 299.172546,241.973755 
	C299.172546,259.555756 299.172546,277.137756 299.172546,294.764069 
	C310.074127,294.764069 320.481689,294.764069 330.725281,294.764069 
	C330.725281,289.414093 330.725281,284.389343 330.725281,279.115540 
	C325.682831,279.115540 321.090576,279.115540 316.376587,279.115540 
	C316.376587,271.006409 316.376587,263.253479 316.376587,254.916595 
	C320.931152,254.916595 325.315216,254.916595 329.658386,254.916595 
	C329.658386,249.570526 329.658386,244.812271 329.658386,239.647400 
	C325.166046,239.647400 320.915497,239.647400 316.471039,239.647400 
	C316.471039,231.851517 316.471039,224.469254 316.471039,216.801407 
	C321.381592,216.801407 325.999207,216.801407 330.938324,216.801407 
	C330.938324,211.438995 330.938324,206.360794 330.938324,201.322723 
	C320.346497,201.322723 309.940521,201.322723 299.242493,201.322723 
	C299.242493,212.066452 299.242493,222.512650 299.049377,233.493149 
	C299.105042,233.674179 299.160675,233.855209 299.075256,234.849457 
	C299.150818,236.216980 299.226379,237.584488 299.106537,239.647827 
M263.133240,169.308090 
	C259.961914,169.893997 255.770523,167.187485 253.289612,171.648163 
	C250.514816,170.589844 247.740021,169.531509 244.320953,168.227463 
	C244.320953,176.138092 244.320953,182.403580 244.320953,189.071518 
	C250.608231,188.857010 245.565308,182.776917 248.699112,181.267670 
	C252.559784,182.161179 247.525864,189.229340 253.415329,189.045761 
	C253.581253,182.947723 253.732635,177.383774 254.880661,171.832993 
	C255.896500,172.935257 257.658173,173.956543 257.788300,175.154938 
	C258.177734,178.742157 257.824463,182.403641 257.996613,186.024933 
	C258.044678,187.036179 258.908295,188.008667 259.397797,188.998901 
	C259.946747,188.069489 260.933929,187.156693 260.969910,186.207840 
	C261.138275,181.765182 261.044678,177.312592 261.044678,172.899826 
	C262.371429,172.314270 263.535217,171.800629 265.106201,172.162338 
	C266.164032,176.955246 267.126038,181.772919 268.353363,186.522018 
	C268.627960,187.584488 269.832886,188.406540 270.807465,189.577087 
	C272.414032,181.954529 273.737854,175.673370 275.061707,169.392197 
	C274.475311,169.174881 273.888916,168.957565 273.302490,168.740250 
	C272.304474,171.098831 271.306488,173.457413 270.067780,176.384827 
	C269.455933,174.461990 269.272980,172.738525 268.396515,171.509735 
	C267.739716,170.588898 266.190125,170.304871 264.466400,169.738968 
	C264.276489,169.754501 264.086548,169.770035 263.133240,169.308090 
M215.007706,252.705399 
	C213.056427,250.544098 211.105133,248.382797 209.045593,246.101578 
	C215.052322,242.482285 216.759521,236.652267 216.538849,229.944122 
	C216.412857,226.114197 216.352539,222.279633 216.114365,218.456390 
	C215.503387,208.647964 209.739258,202.057678 199.997818,201.384506 
	C191.069138,200.767487 182.064240,201.253494 172.786102,201.253494 
	C172.786102,232.557007 172.786102,263.696503 172.786102,294.980347 
	C181.713135,294.980347 190.043396,295.170227 198.361313,294.930817 
	C208.112793,294.650146 215.458603,290.023407 216.295944,281.527557 
	C217.207474,272.279114 215.733475,262.795563 215.007706,252.705399 
M247.242233,269.501068 
	C247.242233,277.922882 247.242233,286.344727 247.242233,294.615662 
	C253.198242,294.615662 258.583069,294.615662 264.465790,294.615662 
	C264.465790,281.203888 264.465790,268.156128 264.465790,255.108398 
	C264.871613,254.929337 265.277405,254.750290 265.683228,254.571228 
	C266.415344,255.519241 267.489014,256.363525 267.814453,257.435028 
	C268.729523,260.447937 269.333923,263.555023 270.065613,266.623840 
	C272.320587,276.081421 274.577789,285.538483 276.768951,294.722595 
	C283.656219,294.722595 289.734009,294.722595 296.172974,294.722595 
	C291.814240,280.093781 287.411102,265.838898 283.413635,251.471176 
	C282.584564,248.491364 282.562653,244.904999 283.364105,241.919022 
	C287.008759,228.340302 291.080597,214.876221 295.028534,201.268387 
	C288.566315,201.268387 282.483276,201.268387 276.718292,201.268387 
	C272.324463,214.054031 271.292694,227.389801 266.676666,239.687531 
	C266.000671,239.584961 265.324646,239.482391 264.648621,239.379822 
	C264.648621,226.622894 264.648621,213.865967 264.648621,201.284302 
	C258.403259,201.284302 253.003052,201.284302 247.252930,201.284302 
	C247.252930,223.948288 247.252930,246.224548 247.242233,269.501068 
M433.324097,342.500427 
	C433.324097,325.740234 433.324097,308.980011 433.324097,292.158630 
	C430.671570,292.158630 428.561035,292.158630 425.928101,292.158630 
	C425.928101,334.875061 425.928101,377.409546 425.928101,420.420898 
	C383.002228,420.420898 340.599274,420.420898 298.042053,420.420898 
	C298.042053,423.155609 298.042053,425.406006 298.042053,427.373413 
	C343.216370,427.373413 388.092438,427.373413 433.322906,427.373413 
	C433.322906,399.086823 433.322906,371.293640 433.324097,342.500427 
M68.921501,79.643661 
	C68.921501,124.188828 68.921501,168.733994 68.921501,213.145737 
	C71.723854,213.145737 73.786842,213.145737 76.296692,213.145737 
	C76.296692,170.233582 76.296692,127.680473 76.296692,84.833389 
	C119.168724,84.833389 161.583496,84.833389 204.209534,84.833389 
	C204.209534,82.442528 204.209534,80.351387 204.209534,78.071892 
	C203.200012,77.979485 202.400757,77.842491 201.601471,77.842300 
	C158.459396,77.831802 115.317307,77.826874 72.175262,77.867622 
	C71.115440,77.868622 70.056107,78.389656 68.921501,79.643661 
M239.919281,266.500000 
	C239.919281,244.726028 239.919281,222.952057 239.919281,201.158463 
	C233.982986,201.158463 228.575165,201.158463 223.134338,201.158463 
	C223.134338,232.524261 223.134338,263.565918 223.134338,294.711182 
	C228.934982,294.711182 234.330780,294.711182 239.919281,294.711182 
	C239.919281,285.442505 239.919281,276.471252 239.919281,266.500000 
M207.503372,308.013123 
	C202.392807,308.013123 197.282227,308.013123 192.188965,308.013123 
	C192.188965,309.919006 192.188965,311.321045 192.188965,312.848022 
	C232.468658,312.848022 272.503937,312.848022 312.632080,312.848022 
	C312.632080,311.156769 312.632080,309.665741 312.632080,308.013123 
	C277.689301,308.013123 243.095581,308.013123 207.503372,308.013123 
M227.552444,173.851471 
	C227.552444,178.808121 227.552444,183.764755 227.552444,189.367920 
	C231.188232,188.275543 235.928696,190.984131 236.853195,185.451370 
	C237.527481,181.416214 237.266129,177.157730 236.926392,173.039658 
	C236.610214,169.206970 233.384750,169.423172 230.509354,169.183853 
	C227.363297,168.921997 227.447449,170.847198 227.552444,173.851471 
M242.215988,185.990356 
	C242.215469,170.083801 242.215469,170.083801 239.234833,169.473053 
	C239.234833,175.944992 239.234833,182.375015 239.234833,190.404297 
	C240.801056,188.552582 241.507675,187.717148 242.215988,185.990356 
z"/>
<path fill="#F7F7F7" opacity="1.000000" stroke="none" 
	d="
M215.153595,253.059937 
	C215.733475,262.795563 217.207474,272.279114 216.295944,281.527557 
	C215.458603,290.023407 208.112793,294.650146 198.361313,294.930817 
	C190.043396,295.170227 181.713135,294.980347 172.786102,294.980347 
	C172.786102,263.696503 172.786102,232.557007 172.786102,201.253494 
	C182.064240,201.253494 191.069138,200.767487 199.997818,201.384506 
	C209.739258,202.057678 215.503387,208.647964 216.114365,218.456390 
	C216.352539,222.279633 216.412857,226.114197 216.538849,229.944122 
	C216.759521,236.652267 215.052322,242.482285 209.045593,246.101578 
	C211.105133,248.382797 213.056427,250.544098 215.153595,253.059937 
M185.789490,284.063721 
	C186.486740,283.684845 187.183990,283.305969 187.881256,282.927124 
	C187.025742,282.684906 186.170242,282.442719 184.620911,281.787018 
	C181.825623,280.158173 180.584198,280.921265 180.660416,284.634430 
	C180.439285,285.316559 180.218170,285.998688 179.683624,286.948151 
	C179.687210,287.148376 179.690796,287.348633 179.694382,287.548859 
	C179.879318,287.366150 180.064270,287.183472 180.513809,287.002014 
	C180.513809,287.002014 180.777176,286.976624 181.140457,287.556030 
	C181.554718,287.712769 181.968979,287.869507 182.533981,288.020233 
	C182.533981,288.020233 182.680786,287.985535 182.879715,288.612122 
	C183.622238,288.739441 184.364761,288.866760 185.565369,288.601105 
	C185.384811,287.206696 185.204254,285.812317 185.133682,284.168091 
	C185.133682,284.168091 185.044907,283.909943 185.789490,284.063721 
M206.306686,279.081604 
	C205.823013,280.046722 205.339325,281.011841 204.153198,281.986847 
	C200.622375,281.066437 197.879944,282.068756 197.002228,285.728058 
	C196.850784,286.359436 199.249710,287.602539 200.790085,288.814484 
	C201.063049,286.548035 201.214233,285.292847 201.440430,283.414734 
	C202.624603,284.668488 203.279510,285.361877 203.982590,286.106262 
	C205.223801,284.539307 206.231659,283.266968 207.949509,282.123016 
	C209.043457,281.018860 210.137390,279.914703 211.231339,278.810547 
	C210.975433,278.502991 210.719513,278.195435 210.463608,277.887878 
	C209.304535,278.261139 208.145477,278.634430 206.306686,279.081604 
M190.666168,279.449829 
	C200.077103,279.247192 200.094437,279.229706 200.096176,269.865540 
	C200.096649,267.376465 200.101944,264.887329 200.094986,262.398285 
	C200.074127,254.938370 197.295746,253.033295 189.995911,255.214920 
	C189.995911,263.192169 189.995911,271.091248 190.666168,279.449829 
M199.255692,226.575867 
	C199.247009,216.831512 198.170547,215.759857 189.846237,217.250687 
	C189.846237,224.769989 189.846237,232.291260 189.846237,239.789261 
	C198.433273,240.204071 199.183624,239.518600 199.255554,231.519440 
	C199.267502,230.190521 199.256409,228.861420 199.255692,226.575867 
M185.578629,279.557465 
	C185.578629,279.557465 185.475800,279.633850 185.578629,279.557465 
z"/>
<path fill="#F9F9F9" opacity="1.000000" stroke="none" 
	d="
M247.247589,269.000916 
	C247.252930,246.224548 247.252930,223.948288 247.252930,201.284302 
	C253.003052,201.284302 258.403259,201.284302 264.648621,201.284302 
	C264.648621,213.865967 264.648621,226.622894 264.648621,239.379822 
	C265.324646,239.482391 266.000671,239.584961 266.676666,239.687531 
	C271.292694,227.389801 272.324463,214.054031 276.718292,201.268387 
	C282.483276,201.268387 288.566315,201.268387 295.028534,201.268387 
	C291.080597,214.876221 287.008759,228.340302 283.364105,241.919022 
	C282.562653,244.904999 282.584564,248.491364 283.413635,251.471176 
	C287.411102,265.838898 291.814240,280.093781 296.172974,294.722595 
	C289.734009,294.722595 283.656219,294.722595 276.768951,294.722595 
	C274.577789,285.538483 272.320587,276.081421 270.065613,266.623840 
	C269.333923,263.555023 268.729523,260.447937 267.814453,257.435028 
	C267.489014,256.363525 266.415344,255.519241 265.683228,254.571228 
	C265.277405,254.750290 264.871613,254.929337 264.465790,255.108398 
	C264.465790,268.156128 264.465790,281.203888 264.465790,294.615662 
	C258.583069,294.615662 253.198242,294.615662 247.242233,294.615662 
	C247.242233,286.344727 247.242233,277.922882 247.247589,269.000916 
z"/>
<path fill="#F7F7F7" opacity="1.000000" stroke="none" 
	d="
M299.242493,232.958847 
	C299.242493,222.512650 299.242493,212.066452 299.242493,201.322723 
	C309.940521,201.322723 320.346497,201.322723 330.938324,201.322723 
	C330.938324,206.360794 330.938324,211.438995 330.938324,216.801407 
	C325.999207,216.801407 321.381592,216.801407 316.471039,216.801407 
	C316.471039,224.469254 316.471039,231.851517 316.471039,239.647400 
	C320.915497,239.647400 325.166046,239.647400 329.658386,239.647400 
	C329.658386,244.812271 329.658386,249.570526 329.658386,254.916595 
	C325.315216,254.916595 320.931152,254.916595 316.376587,254.916595 
	C316.376587,263.253479 316.376587,271.006409 316.376587,279.115540 
	C321.090576,279.115540 325.682831,279.115540 330.725281,279.115540 
	C330.725281,284.389343 330.725281,289.414093 330.725281,294.764069 
	C320.481689,294.764069 310.074127,294.764069 299.172546,294.764069 
	C299.172546,277.137756 299.172546,259.555756 299.588593,241.489441 
	C301.036713,240.676208 302.068817,240.347275 303.113403,240.371735 
	C303.407867,242.385178 303.689819,244.045242 304.046143,246.143143 
	C307.518158,243.841721 310.341339,241.970352 313.164520,240.098999 
	C312.943878,239.682175 312.723206,239.265335 312.502563,238.848511 
	C310.677002,238.531631 308.851440,238.214752 306.999084,237.496826 
	C306.518188,235.132004 306.064026,233.168198 305.434357,230.445374 
	C305.434875,230.444733 306.161133,229.560608 306.887421,228.676468 
	C306.582764,228.369507 306.278076,228.062546 305.973419,227.755585 
	C305.009521,228.675583 304.115326,229.686691 303.063324,230.491562 
	C301.863068,231.409851 300.522217,232.144424 299.242493,232.958847 
M318.926025,283.232910 
	C318.442810,282.996582 317.959595,282.760254 317.476379,282.523895 
	C317.520966,282.958893 317.565582,283.393860 317.958679,284.409302 
	C318.819916,284.751831 319.681152,285.094330 320.542389,285.436859 
	C320.634949,284.844177 320.727478,284.251465 320.820038,283.658783 
	C320.224518,283.687622 319.628998,283.716461 318.926025,283.232910 
M316.669586,288.139862 
	C317.703003,288.718231 318.736450,289.296600 319.769897,289.875000 
	C319.971375,289.472748 320.172852,289.070496 320.374359,288.668243 
	C319.019897,288.308807 317.665436,287.949341 316.669586,288.139862 
M310.175690,250.998581 
	C309.462952,251.474274 308.750183,251.949966 308.037445,252.425659 
	C308.285583,252.723633 308.533752,253.021622 308.781891,253.319611 
	C309.461975,252.685394 310.142029,252.051178 310.175690,250.998581 
M309.267731,256.468811 
	C309.045593,256.163452 308.833954,255.848923 308.585938,255.566269 
	C308.559753,255.536438 308.192780,255.745483 308.197571,255.757370 
	C308.332550,256.091461 308.495117,256.414429 309.267731,256.468811 
M304.831573,255.720749 
	C304.991058,255.616379 305.150543,255.512024 305.310059,255.407669 
	C305.083923,255.425873 304.857758,255.444077 304.831573,255.720749 
M310.788086,255.659760 
	C310.381226,255.776413 309.974396,255.893066 309.567535,256.009735 
	C309.971497,256.125732 310.375458,256.241730 310.788086,255.659760 
z"/>
<path fill="#F1F1F1" opacity="1.000000" stroke="none" 
	d="
M433.323486,343.000427 
	C433.322906,371.293640 433.322906,399.086823 433.322906,427.373413 
	C388.092438,427.373413 343.216370,427.373413 298.042053,427.373413 
	C298.042053,425.406006 298.042053,423.155609 298.042053,420.420898 
	C340.599274,420.420898 383.002228,420.420898 425.928101,420.420898 
	C425.928101,377.409546 425.928101,334.875061 425.928101,292.158630 
	C428.561035,292.158630 430.671570,292.158630 433.324097,292.158630 
	C433.324097,308.980011 433.324097,325.740234 433.323486,343.000427 
z"/>
<path fill="#FFFFFF" opacity="1.000000" stroke="none" 
	d="
M68.959023,79.155899 
	C70.056107,78.389656 71.115440,77.868622 72.175262,77.867622 
	C115.317307,77.826874 158.459396,77.831802 201.601471,77.842300 
	C202.400757,77.842491 203.200012,77.979485 204.209534,78.071892 
	C204.209534,80.351387 204.209534,82.442528 204.209534,84.833389 
	C161.583496,84.833389 119.168724,84.833389 76.296692,84.833389 
	C76.296692,127.680473 76.296692,170.233582 76.296692,213.145737 
	C73.786842,213.145737 71.723854,213.145737 68.921501,213.145737 
	C68.921501,168.733994 68.921501,124.188828 68.959023,79.155899 
z"/>
<path fill="#F8F8F8" opacity="1.000000" stroke="none" 
	d="
M239.919281,267.000000 
	C239.919281,276.471252 239.919281,285.442505 239.919281,294.711182 
	C234.330780,294.711182 228.934982,294.711182 223.134338,294.711182 
	C223.134338,263.565918 223.134338,232.524261 223.134338,201.158463 
	C228.575165,201.158463 233.982986,201.158463 239.919281,201.158463 
	C239.919281,222.952057 239.919281,244.726028 239.919281,267.000000 
z"/>
<path fill="#FDFDFD" opacity="1.000000" stroke="none" 
	d="
M208.002625,308.013123 
	C243.095581,308.013123 277.689301,308.013123 312.632080,308.013123 
	C312.632080,309.665741 312.632080,311.156769 312.632080,312.848022 
	C272.503937,312.848022 232.468658,312.848022 192.188965,312.848022 
	C192.188965,311.321045 192.188965,309.919006 192.188965,308.013123 
	C197.282227,308.013123 202.392807,308.013123 208.002625,308.013123 
z"/>
<path fill="#D8D8D8" opacity="1.000000" stroke="none" 
	d="
M253.884003,171.819809 
	C253.732635,177.383774 253.581253,182.947723 253.415329,189.045761 
	C247.525864,189.229340 252.559784,182.161179 248.699112,181.267670 
	C245.565308,182.776917 250.608231,188.857010 244.320953,189.071518 
	C244.320953,182.403580 244.320953,176.138092 244.320953,168.227463 
	C247.740021,169.531509 250.514816,170.589844 253.615738,171.841797 
	C253.941864,172.035416 253.884003,171.819809 253.884003,171.819809 
z"/>
<path fill="#F0F0F0" opacity="1.000000" stroke="none" 
	d="
M227.552490,173.401932 
	C227.447449,170.847198 227.363297,168.921997 230.509354,169.183853 
	C233.384750,169.423172 236.610214,169.206970 236.926392,173.039658 
	C237.266129,177.157730 237.527481,181.416214 236.853195,185.451370 
	C235.928696,190.984131 231.188232,188.275543 227.552444,189.367920 
	C227.552444,183.764755 227.552444,178.808121 227.552490,173.401932 
M233.982773,182.290009 
	C233.254974,178.981155 235.682419,174.815445 231.209503,171.513229 
	C231.209503,176.985352 231.209503,181.473068 231.209503,185.960770 
	C231.585526,186.092789 231.961563,186.224808 232.337585,186.356812 
	C232.885315,185.307617 233.433044,184.258423 233.982773,182.290009 
z"/>
<path fill="#DEDEDE" opacity="1.000000" stroke="none" 
	d="
M265.038086,169.737305 
	C266.190125,170.304871 267.739716,170.588898 268.396515,171.509735 
	C269.272980,172.738525 269.455933,174.461990 270.067780,176.384827 
	C271.306488,173.457413 272.304474,171.098831 273.302490,168.740250 
	C273.888916,168.957565 274.475311,169.174881 275.061707,169.392197 
	C273.737854,175.673370 272.414032,181.954529 270.807465,189.577087 
	C269.832886,188.406540 268.627960,187.584488 268.353363,186.522018 
	C267.126038,181.772919 266.164032,176.955246 264.897888,171.772491 
	C264.689606,171.382645 264.705322,171.198807 264.798279,170.964325 
	C264.940186,170.399002 264.989136,170.068161 265.038086,169.737305 
z"/>
<path fill="#F7F7F7" opacity="1.000000" stroke="none" 
	d="
M264.705322,171.198807 
	C264.705322,171.198807 264.689606,171.382645 264.694305,171.334808 
	C263.535217,171.800629 262.371429,172.314270 261.044678,172.899826 
	C261.044678,177.312592 261.138275,181.765182 260.969910,186.207840 
	C260.933929,187.156693 259.946747,188.069489 259.397827,188.998901 
	C258.908295,188.008667 258.044678,187.036179 257.996613,186.024933 
	C257.824463,182.403641 258.177734,178.742157 257.788300,175.154938 
	C257.658173,173.956543 255.896500,172.935257 254.382324,171.826401 
	C253.884003,171.819809 253.941864,172.035416 253.948730,172.093445 
	C255.770523,167.187485 259.961914,169.893997 263.490845,169.781525 
	C264.134094,170.569565 264.419708,170.884186 264.705322,171.198807 
z"/>
<path fill="#F1F1F1" opacity="1.000000" stroke="none" 
	d="
M242.215149,186.436035 
	C241.507675,187.717148 240.801056,188.552582 239.234833,190.404297 
	C239.234833,182.375015 239.234833,175.944992 239.234833,169.473053 
	C242.215469,170.083801 242.215469,170.083801 242.215149,186.436035 
z"/>
<path fill="#D4D4D4" opacity="1.000000" stroke="none" 
	d="
M303.100891,240.018341 
	C302.068817,240.347275 301.036713,240.676208 299.674316,241.031509 
	C299.264832,240.587860 299.185669,240.117844 299.537384,239.232239 
	C302.152039,237.537155 304.335846,236.257660 306.888123,234.762253 
	C303.569672,234.448212 301.392975,234.242218 299.216278,234.036224 
	C299.160675,233.855209 299.105042,233.674179 299.145935,233.225998 
	C300.522217,232.144424 301.863068,231.409851 303.063324,230.491562 
	C304.115326,229.686691 305.009521,228.675583 305.973419,227.755585 
	C306.278076,228.062546 306.582764,228.369507 306.887421,228.676468 
	C306.161133,229.560608 305.434875,230.444733 305.434357,230.445374 
	C306.064026,233.168198 306.518188,235.132004 306.659882,237.504105 
	C305.265259,238.614395 304.183075,239.316360 303.100891,240.018341 
z"/>
<path fill="#F7F7F7" opacity="1.000000" stroke="none" 
	d="
M299.145752,234.442841 
	C301.392975,234.242218 303.569672,234.448212 306.888123,234.762253 
	C304.335846,236.257660 302.152039,237.537155 299.635101,238.884338 
	C299.226379,237.584488 299.150818,236.216980 299.145752,234.442841 
z"/>
<path fill="#D8D8D8" opacity="1.000000" stroke="none" 
	d="
M264.798279,170.964325 
	C264.419708,170.884186 264.134094,170.569565 263.872559,170.020264 
	C264.086548,169.770035 264.276489,169.754501 264.752258,169.738129 
	C264.989136,170.068161 264.940186,170.399002 264.798279,170.964325 
z"/>
<path fill="#080808" opacity="1.000000" stroke="none" 
	d="
M190.331039,279.220093 
	C189.995911,271.091248 189.995911,263.192169 189.995911,255.214920 
	C197.295746,253.033295 200.074127,254.938370 200.094986,262.398285 
	C200.101944,264.887329 200.096649,267.376465 200.096176,269.865540 
	C200.094437,279.229706 200.077103,279.247192 190.331039,279.220093 
z"/>
<path fill="#070707" opacity="1.000000" stroke="none" 
	d="
M199.255829,227.054138 
	C199.256409,228.861420 199.267502,230.190521 199.255554,231.519440 
	C199.183624,239.518600 198.433273,240.204071 189.846237,239.789261 
	C189.846237,232.291260 189.846237,224.769989 189.846237,217.250687 
	C198.170547,215.759857 199.247009,216.831512 199.255829,227.054138 
z"/>
<path fill="#6D6D6D" opacity="1.000000" stroke="none" 
	d="
M207.239532,281.994629 
	C206.231659,283.266968 205.223801,284.539307 203.982590,286.106262 
	C203.279510,285.361877 202.624603,284.668488 201.440430,283.414734 
	C201.214233,285.292847 201.063049,286.548035 200.790085,288.814484 
	C199.249710,287.602539 196.850784,286.359436 197.002228,285.728058 
	C197.879944,282.068756 200.622375,281.066437 204.829559,281.981964 
	C205.939072,281.987671 206.372208,281.998260 206.913483,281.992523 
	C207.021606,281.976196 207.239532,281.994629 207.239532,281.994629 
z"/>
<path fill="#F0F0F0" opacity="1.000000" stroke="none" 
	d="
M185.023682,284.417908 
	C185.204254,285.812317 185.384811,287.206696 185.022766,288.694763 
	C183.880371,288.520813 183.280579,288.253174 182.680786,287.985535 
	C182.680786,287.985535 182.533981,288.020233 182.241974,287.772461 
	C181.559036,287.342041 181.168106,287.159332 180.777176,286.976624 
	C180.777176,286.976624 180.513809,287.002014 180.288300,286.945190 
	C180.062775,286.888367 179.997040,286.680817 179.997040,286.680817 
	C180.218170,285.998688 180.439285,285.316559 181.215912,284.317810 
	C182.855499,284.140076 183.939590,284.278992 185.023682,284.417908 
z"/>
<path fill="#CCCCCC" opacity="1.000000" stroke="none" 
	d="
M206.986404,279.007690 
	C208.145477,278.634430 209.304535,278.261139 210.463608,277.887878 
	C210.719513,278.195435 210.975433,278.502991 211.231339,278.810547 
	C210.137390,279.914703 209.043457,281.018860 207.594513,282.058838 
	C207.239532,281.994629 207.021606,281.976196 207.000595,281.621063 
	C206.981857,280.513184 206.984131,279.760437 206.986404,279.007690 
z"/>
<path fill="#CCCCCC" opacity="1.000000" stroke="none" 
	d="
M185.078690,284.292999 
	C183.939590,284.278992 182.855499,284.140076 181.363708,284.084473 
	C180.584198,280.921265 181.825623,280.158173 184.954849,282.283997 
	C185.207489,283.157288 185.126190,283.533630 185.044907,283.909943 
	C185.044907,283.909943 185.133682,284.168091 185.078690,284.292999 
z"/>
<path fill="#373737" opacity="1.000000" stroke="none" 
	d="
M185.417206,283.986816 
	C185.126190,283.533630 185.207489,283.157288 185.301758,282.490723 
	C186.170242,282.442719 187.025742,282.684906 187.881256,282.927124 
	C187.183990,283.305969 186.486740,283.684845 185.417206,283.986816 
z"/>
<path fill="#373737" opacity="1.000000" stroke="none" 
	d="
M206.646545,279.044647 
	C206.984131,279.760437 206.981857,280.513184 206.892471,281.637390 
	C206.372208,281.998260 205.939072,281.987671 205.180786,281.977020 
	C205.339325,281.011841 205.823013,280.046722 206.646545,279.044647 
z"/>
<path fill="#CCCCCC" opacity="1.000000" stroke="none" 
	d="
M182.780243,288.298828 
	C183.280579,288.253174 183.880371,288.520813 184.793732,288.891266 
	C184.364761,288.866760 183.622238,288.739441 182.780243,288.298828 
z"/>
<path fill="#CCCCCC" opacity="1.000000" stroke="none" 
	d="
M180.958817,287.266327 
	C181.168106,287.159332 181.559036,287.342041 182.166595,287.775482 
	C181.968979,287.869507 181.554718,287.712769 180.958817,287.266327 
z"/>
<path fill="#CCCCCC" opacity="1.000000" stroke="none" 
	d="
M180.156006,286.944580 
	C180.064270,287.183472 179.879318,287.366150 179.694382,287.548859 
	C179.690796,287.348633 179.687210,287.148376 179.840332,286.814484 
	C179.997040,286.680817 180.062775,286.888367 180.156006,286.944580 
z"/>
<path fill="#CCCCCC" opacity="1.000000" stroke="none" 
	d="
M185.527222,279.595642 
	C185.475800,279.633850 185.578629,279.557465 185.527222,279.595642 
z"/>
<path fill="#373737" opacity="1.000000" stroke="none" 
	d="
M303.113403,240.371735 
	C304.183075,239.316360 305.265259,238.614395 306.686646,237.905151 
	C308.851440,238.214752 310.677002,238.531631 312.502563,238.848511 
	C312.723206,239.265335 312.943878,239.682175 313.164520,240.098999 
	C310.341339,241.970352 307.518158,243.841721 304.046143,246.143143 
	C303.689819,244.045242 303.407867,242.385178 303.113403,240.371735 
z"/>
<path fill="#6D6D6D" opacity="1.000000" stroke="none" 
	d="
M316.490295,287.864868 
	C317.665436,287.949341 319.019897,288.308807 320.374359,288.668243 
	C320.172852,289.070496 319.971375,289.472748 319.769897,289.875000 
	C318.736450,289.296600 317.703003,288.718231 316.490295,287.864868 
z"/>
<path fill="#080808" opacity="1.000000" stroke="none" 
	d="
M310.498901,251.207764 
	C310.142029,252.051178 309.461975,252.685394 308.781891,253.319611 
	C308.533752,253.021622 308.285583,252.723633 308.037445,252.425659 
	C308.750183,251.949966 309.462952,251.474274 310.498901,251.207764 
z"/>
<path fill="#CCCCCC" opacity="1.000000" stroke="none" 
	d="
M319.033478,283.745331 
	C319.628998,283.716461 320.224518,283.687622 320.820038,283.658783 
	C320.727478,284.251465 320.634949,284.844177 320.542389,285.436859 
	C319.681152,285.094330 318.819916,284.751831 318.143555,284.123779 
	C318.563416,283.807312 318.798462,283.776337 319.033478,283.745331 
z"/>
<path fill="#F0F0F0" opacity="1.000000" stroke="none" 
	d="
M318.979736,283.489136 
	C318.798462,283.776337 318.563416,283.807312 317.969299,283.833557 
	C317.565582,283.393860 317.520966,282.958893 317.476379,282.523895 
	C317.959595,282.760254 318.442810,282.996582 318.979736,283.489136 
z"/>
<path fill="#CCCCCC" opacity="1.000000" stroke="none" 
	d="
M308.960449,256.604004 
	C308.495117,256.414429 308.332550,256.091461 308.197571,255.757370 
	C308.192780,255.745483 308.559753,255.536438 308.585938,255.566269 
	C308.833954,255.848923 309.045593,256.163452 308.960449,256.604004 
z"/>
<path fill="#CCCCCC" opacity="1.000000" stroke="none" 
	d="
M304.731598,255.591522 
	C304.857758,255.444077 305.083923,255.425873 305.310059,255.407654 
	C305.150543,255.512024 304.991058,255.616379 304.731598,255.591522 
z"/>
<path fill="#CCCCCC" opacity="1.000000" stroke="none" 
	d="
M310.783752,256.008728 
	C310.375458,256.241730 309.971497,256.125732 309.567535,256.009735 
	C309.974396,255.893066 310.381226,255.776413 310.783752,256.008728 
z"/>
<path fill="#070707" opacity="1.000000" stroke="none" 
	d="
M233.981781,182.749603 
	C233.433044,184.258423 232.885315,185.307617 232.337585,186.356812 
	C231.961563,186.224808 231.585526,186.092789 231.209503,185.960770 
	C231.209503,181.473068 231.209503,176.985352 231.209503,171.513229 
	C235.682419,174.815445 233.254974,178.981155 233.981781,182.749603 
z"/>
</svg>