<svg version="1.1" id="Layer_1" xmlns="http://www.w3.org/2000/svg" xmlns:xlink="http://www.w3.org/1999/xlink" x="0px" y="0px"
	 width="100%" viewBox="0 0 500 500" enable-background="new 0 0 500 500" xml:space="preserve">
<path fill="#010101" opacity="1.000000" stroke="none" 
	d="
M263.000000,501.000000 
	C175.333359,501.000000 88.166710,501.000000 1.000047,501.000000 
	C1.000031,334.333405 1.000031,167.666794 1.000016,1.000136 
	C167.666565,1.000091 334.333130,1.000091 500.999756,1.000045 
	C500.999847,167.666519 500.999847,334.333038 500.999939,500.999786 
	C421.833344,501.000000 342.666656,501.000000 263.000000,501.000000 
M254.141037,95.293335 
	C251.497757,95.241013 248.852875,95.120300 246.212311,95.182968 
	C245.525238,95.199287 244.549789,95.628197 244.266510,96.163689 
	C244.035248,96.600830 244.574890,97.509651 244.884140,98.156044 
	C245.605530,99.663849 246.891159,101.087898 247.052307,102.638954 
	C247.392197,105.910698 247.051453,109.247887 247.230759,112.545135 
	C247.277817,113.410278 248.206635,114.227478 248.730515,115.066704 
	C249.422440,114.227570 250.651886,113.424728 250.711411,112.542908 
	C250.944748,109.086288 251.032272,105.586288 250.747025,102.137718 
	C250.466370,98.744461 251.987122,97.749443 255.015839,98.804062 
	C255.997421,103.455627 256.922546,108.120483 258.012207,112.746582 
	C258.210205,113.587219 259.081146,114.269348 259.641388,115.024658 
	C260.131744,114.196075 260.871033,113.422432 261.068146,112.529152 
	C261.809235,109.170799 262.305542,105.758842 263.027527,102.395729 
	C263.523987,100.083275 264.241638,97.818314 264.860443,95.532127 
	C264.242889,95.276848 263.625336,95.021568 263.007782,94.766289 
	C261.888306,97.166588 260.768860,99.566879 260.006470,101.201546 
	C258.418335,99.363297 256.733429,97.413040 254.141037,95.293335 
M249.962280,392.903778 
	C250.571533,404.525360 255.662354,411.045807 266.428711,412.591278 
	C271.251526,413.283630 276.392792,412.907654 281.230957,412.084442 
	C289.304535,410.710632 294.435303,405.455566 295.224945,397.360229 
	C295.911255,390.323914 295.765594,383.097229 295.011749,376.059204 
	C294.198364,368.465485 288.923370,364.031555 281.744629,362.302124 
	C278.085602,361.420624 274.155090,361.116577 270.389893,361.324219 
	C256.811493,362.072998 250.648315,368.430389 249.417923,382.017548 
	C249.164993,381.754028 248.862564,381.671356 248.452911,380.865295 
	C248.452911,374.757843 248.452911,368.650421 248.452911,362.577087 
	C241.148300,362.577087 234.555756,362.577087 227.228409,362.577087 
	C227.228409,368.622620 227.228409,374.392609 227.228409,380.162567 
	C226.754501,380.154205 226.280579,380.145813 225.806671,380.137451 
	C225.806671,374.318481 225.806671,368.499542 225.806671,362.529358 
	C218.544434,362.529358 211.961578,362.529358 205.298096,362.529358 
	C205.298096,379.140442 205.298096,395.508911 205.298096,411.714478 
	C212.233643,411.714478 218.824936,411.714478 226.028656,411.714478 
	C226.028656,405.732788 226.028656,400.021484 226.028656,394.310181 
	C226.494965,394.311829 226.961273,394.313446 227.427582,394.315094 
	C227.427582,400.146088 227.427582,405.977112 227.427582,411.801758 
	C234.829254,411.801758 241.453369,411.801758 248.510986,411.801758 
	C248.510986,405.149475 248.510986,398.695160 248.998917,392.267029 
	C248.998917,392.267029 249.411423,392.008423 249.411423,392.008423 
	C249.411423,392.008423 249.894958,392.064117 249.962280,392.903778 
M149.499924,439.166199 
	C238.880463,439.166199 328.261017,439.166199 417.604370,439.166199 
	C417.604370,434.016541 417.604370,429.594574 417.604370,425.098236 
	C306.457611,425.098236 195.580490,425.098236 84.488808,425.098236 
	C84.488808,429.782562 84.488808,434.202728 84.488808,439.166199 
	C105.959122,439.166199 127.229515,439.166199 149.499924,439.166199 
M294.500061,334.833801 
	C224.574265,334.833801 154.648453,334.833801 84.645393,334.833801 
	C84.645393,339.874054 84.645393,344.407196 84.645393,348.818787 
	C195.884323,348.818787 306.751495,348.818787 417.615326,348.818787 
	C417.615326,344.045197 417.615326,339.623596 417.615326,334.833801 
	C376.738647,334.833801 336.119385,334.833801 294.500061,334.833801 
M175.504318,127.048775 
	C171.066330,127.048775 166.628342,127.048775 161.975555,127.048775 
	C161.975555,158.702179 161.975555,189.736694 161.975555,221.018402 
	C169.737259,221.018402 177.056824,221.022400 184.376389,221.014755 
	C185.708923,221.013367 187.046066,221.026703 188.373215,220.927734 
	C198.879242,220.144333 205.782852,214.003952 206.428040,204.358566 
	C206.793121,198.900543 206.536240,193.391312 206.377747,187.910385 
	C206.190277,181.426620 204.186249,175.818954 197.907715,172.605057 
	C203.506012,167.996552 205.713989,164.367798 205.778259,158.671158 
	C205.836426,153.516632 205.700974,148.335876 205.232651,143.204865 
	C204.451569,134.646805 199.440964,129.062195 190.931854,127.713104 
	C186.204819,126.963638 181.314438,127.244461 175.504318,127.048775 
M256.830231,164.842163 
	C255.881393,164.420242 254.244934,164.148712 254.113541,163.548004 
	C253.730392,161.796219 253.934448,159.912872 253.933578,158.081116 
	C253.928680,147.804871 253.931213,137.528641 253.931213,127.198662 
	C248.088303,127.198662 242.684662,127.198662 236.957581,127.198662 
	C236.957581,158.546509 236.957581,189.595291 236.957581,220.608276 
	C242.699524,220.608276 248.081787,220.608276 253.951477,220.608276 
	C253.951477,207.162216 253.951477,194.081406 253.951477,181.000595 
	C254.353622,180.831818 254.755753,180.663025 255.157898,180.494232 
	C255.854996,181.440140 256.879120,182.290070 257.189911,183.349335 
	C258.265503,187.014999 259.118195,190.747437 260.009583,194.465515 
	C262.122772,203.280197 264.209534,212.101212 266.252563,220.690903 
	C273.036530,220.690903 279.101410,220.690903 285.432159,220.690903 
	C285.211700,219.569122 285.119049,218.751541 284.888336,217.974976 
	C280.771637,204.119064 276.571136,190.287399 272.579224,176.395752 
	C271.966980,174.265167 271.734344,171.712570 272.293152,169.612473 
	C274.727386,160.464172 277.535187,151.415649 280.174255,142.321304 
	C281.619568,137.340744 282.999054,132.341110 284.482544,127.086807 
	C277.891357,127.086807 272.082001,127.086807 265.954926,127.086807 
	C262.993561,139.422943 260.046814,151.698120 256.830231,164.842163 
M288.719910,172.136139 
	C288.719910,188.371002 288.719910,204.605850 288.719910,220.720917 
	C299.700562,220.720917 310.110687,220.720917 320.510651,220.720917 
	C320.510651,215.454361 320.510651,210.552689 320.510651,205.185333 
	C315.487701,205.185333 310.777618,205.185333 306.044983,205.185333 
	C306.044983,196.944489 306.044983,189.177475 306.044983,181.007263 
	C310.482117,181.007263 314.739288,181.007263 319.000366,181.007263 
	C319.000366,175.695084 319.000366,170.793518 319.000366,165.624588 
	C314.581818,165.624588 310.483673,165.624588 306.206116,165.624588 
	C306.206116,157.824615 306.206116,150.301941 306.206116,142.453339 
	C311.187714,142.453339 315.793396,142.453339 320.621918,142.453339 
	C320.621918,137.219604 320.621918,132.318390 320.621918,127.266693 
	C309.945496,127.266693 299.540802,127.266693 288.715057,127.266693 
	C288.715057,142.116135 288.715057,156.727600 288.719910,172.136139 
M410.135010,301.431152 
	C410.135010,303.205200 410.135010,304.979248 410.135010,307.219849 
	C367.227386,307.219849 324.830963,307.219849 282.189301,307.219849 
	C282.189301,309.912750 282.189301,312.129639 282.189301,314.334229 
	C327.377319,314.334229 372.257050,314.334229 417.489258,314.334229 
	C417.489258,268.994415 417.489258,224.108246 417.489258,179.228760 
	C415.016449,179.228760 412.805359,179.228760 410.155670,179.228760 
	C410.155670,219.899551 410.155670,260.173462 410.135010,301.431152 
M82.508400,55.999020 
	C78.080727,55.999020 73.653053,55.999020 69.150452,55.999020 
	C69.150452,101.759750 69.150452,146.630020 69.150452,191.494064 
	C71.608612,191.494064 73.655960,191.494064 76.193031,191.494064 
	C76.193031,148.726089 76.193031,106.330498 76.193031,63.269665 
	C119.161835,63.269665 161.633240,63.269665 204.209686,63.269665 
	C204.209686,60.519840 204.209686,58.442802 204.209686,55.999065 
	C163.750671,55.999065 123.627724,55.999065 82.508400,55.999020 
M297.312714,406.324982 
	C297.312714,408.108185 297.312714,409.891418 297.312714,411.708252 
	C304.751678,411.708252 311.653748,411.708252 318.920166,411.708252 
	C318.920166,407.811310 318.920166,404.212616 318.920166,400.607880 
	C319.723389,400.393799 320.177643,400.192902 320.643738,400.160004 
	C336.742523,399.023651 339.901947,395.622284 339.757935,379.483856 
	C339.743134,377.824738 339.636108,376.154633 339.412506,374.511292 
	C338.601501,368.551392 335.227325,364.266174 329.353424,363.649658 
	C318.864410,362.548737 308.279785,362.358490 297.312744,361.764648 
	C297.312744,377.092377 297.312744,391.228241 297.312714,406.324982 
M173.804153,362.017426 
	C167.524261,363.559937 163.552063,367.171021 162.927612,373.921692 
	C162.169464,382.117706 164.809784,386.995117 172.317825,390.873596 
	C174.824173,392.168274 177.391968,393.343964 179.931671,394.574066 
	C179.828171,394.878571 179.724670,395.183105 179.621170,395.487610 
	C176.808456,395.487610 173.995743,395.487610 171.183029,395.487610 
	C168.411224,395.487610 165.639435,395.487610 162.936813,395.487610 
	C162.102966,405.081207 164.952423,410.322174 173.443939,411.853607 
	C179.801285,413.000183 186.690994,412.865875 193.073578,411.752960 
	C200.098999,410.527924 203.113892,405.364471 202.999756,398.250702 
	C202.875534,390.508667 199.414902,384.946808 192.297272,381.745026 
	C190.017487,380.719513 187.744354,379.679169 185.468185,378.645630 
	C185.558060,378.375824 185.647934,378.106049 185.737808,377.836243 
	C191.181839,377.836243 196.625885,377.836243 202.056473,377.836243 
	C202.150070,368.324860 198.492844,363.434937 189.448730,362.086456 
	C184.606445,361.364471 179.573303,361.922699 173.804153,362.017426 
M212.251633,190.499435 
	C212.251633,200.578186 212.251633,210.656921 212.251633,220.620239 
	C218.511703,220.620239 223.894135,220.620239 229.046417,220.620239 
	C229.046417,189.174240 229.046417,158.118774 229.046417,127.242371 
	C223.275024,127.242371 217.875854,127.242371 212.256866,127.242371 
	C212.256866,148.270660 212.256866,168.884888 212.251633,190.499435 
M211.500153,245.340668 
	C201.071136,245.340668 190.642105,245.340668 180.175720,245.340668 
	C180.175720,247.335632 180.175720,248.765366 180.175720,250.345276 
	C220.490494,250.345276 260.556976,250.345276 301.046997,250.345276 
	C300.951660,248.617813 300.867310,247.089157 300.770782,245.340698 
	C271.046356,245.340698 241.773254,245.340698 211.500153,245.340668 
M238.139694,95.251083 
	C236.863617,95.251083 235.587524,95.251083 233.876373,95.251083 
	C233.876373,101.486168 233.827469,107.269463 233.943344,113.049446 
	C233.956604,113.711243 234.891327,114.354561 235.398804,115.006447 
	C235.931839,114.378189 236.854462,113.790260 236.924484,113.114052 
	C237.130386,111.125542 236.997910,109.101990 236.997910,107.092155 
	C237.590561,107.021233 238.183212,106.950317 238.775864,106.879402 
	C239.181152,108.392616 239.519882,109.927879 240.011719,111.412415 
	C240.444016,112.717216 241.047729,113.965225 241.575729,115.238327 
	C242.072952,115.042931 242.570175,114.847534 243.067398,114.652145 
	C243.067398,109.752892 243.409927,104.816162 242.880386,99.974823 
	C242.696716,98.295486 240.351105,96.852623 238.139694,95.251083 
M226.795105,106.391212 
	C226.793793,95.369507 225.488754,93.932068 217.351807,95.879555 
	C217.351807,102.252380 217.351807,108.599495 217.351807,114.919197 
	C226.028152,115.243492 226.612167,114.752563 226.795105,106.391212 
M228.102432,106.466751 
	C228.102432,109.250717 228.102432,112.034683 228.102432,114.818649 
	C228.574463,115.044220 229.046494,115.269798 229.518524,115.495377 
	C230.248123,114.524849 231.564713,113.579811 231.608170,112.579475 
	C231.824249,107.604515 231.785706,102.612389 231.625107,97.633141 
	C231.598160,96.797585 230.531662,95.995560 229.945496,95.178040 
	C229.333542,95.958939 228.265869,96.700180 228.193832,97.528046 
	C227.964264,100.166634 228.104843,102.837410 228.102432,106.466751 
z"/>
<path fill="#FFFFFF" opacity="1.000000" stroke="none" 
	d="
M148.999908,439.166199 
	C127.229515,439.166199 105.959122,439.166199 84.488808,439.166199 
	C84.488808,434.202728 84.488808,429.782562 84.488808,425.098236 
	C195.580490,425.098236 306.457611,425.098236 417.604370,425.098236 
	C417.604370,429.594574 417.604370,434.016541 417.604370,439.166199 
	C328.261017,439.166199 238.880463,439.166199 148.999908,439.166199 
z"/>
<path fill="#FFFFFF" opacity="1.000000" stroke="none" 
	d="
M295.000092,334.833801 
	C336.119385,334.833801 376.738647,334.833801 417.615326,334.833801 
	C417.615326,339.623596 417.615326,344.045197 417.615326,348.818787 
	C306.751495,348.818787 195.884323,348.818787 84.645393,348.818787 
	C84.645393,344.407196 84.645393,339.874054 84.645393,334.833801 
	C154.648453,334.833801 224.574265,334.833801 295.000092,334.833801 
z"/>
<path fill="#F9F9F9" opacity="1.000000" stroke="none" 
	d="
M176.001007,127.054855 
	C181.314438,127.244461 186.204819,126.963638 190.931854,127.713104 
	C199.440964,129.062195 204.451569,134.646805 205.232651,143.204865 
	C205.700974,148.335876 205.836426,153.516632 205.778259,158.671158 
	C205.713989,164.367798 203.506012,167.996552 197.907715,172.605057 
	C204.186249,175.818954 206.190277,181.426620 206.377747,187.910385 
	C206.536240,193.391312 206.793121,198.900543 206.428040,204.358566 
	C205.782852,214.003952 198.879242,220.144333 188.373215,220.927734 
	C187.046066,221.026703 185.708923,221.013367 184.376389,221.014755 
	C177.056824,221.022400 169.737259,221.018402 161.975555,221.018402 
	C161.975555,189.736694 161.975555,158.702179 161.975555,127.048775 
	C166.628342,127.048775 171.066330,127.048775 176.001007,127.054855 
M192.004944,209.503189 
	C192.004944,209.503189 192.065094,209.528564 192.574905,208.743912 
	C191.038803,208.134705 189.502716,207.525482 187.095337,206.570724 
	C187.308426,208.876648 187.453506,210.446701 188.066071,212.456589 
	C188.802597,212.680511 189.539108,212.904434 190.429962,213.694550 
	C190.713852,214.460464 190.997726,215.226379 191.281616,215.992294 
	C191.817398,215.357925 192.478897,214.787994 192.847809,214.068100 
	C193.125671,213.525925 193.028503,212.791534 193.644394,211.703644 
	C193.082886,210.954422 192.521378,210.205185 192.004944,209.503189 
M178.921906,203.838821 
	C181.387375,204.233246 183.920349,205.126724 186.289154,204.806412 
	C187.431290,204.651947 188.950089,202.282837 189.104568,200.792816 
	C189.514694,196.836960 189.294632,192.813766 189.290436,188.817383 
	C189.282196,180.974014 187.283661,179.448410 178.950226,181.114914 
	C178.950226,188.358017 178.950226,195.652039 178.921906,203.838821 
M188.630722,148.168823 
	C187.398819,142.726669 186.250778,142.115128 179.103760,143.117813 
	C179.103760,150.698746 179.103760,158.281586 179.103760,165.849030 
	C187.687164,166.159317 188.572662,165.321609 188.648346,157.041702 
	C188.672714,154.375763 188.648682,151.709412 188.630722,148.168823 
z"/>
<path fill="#FBFBFB" opacity="1.000000" stroke="none" 
	d="
M256.965149,164.407730 
	C260.046814,151.698120 262.993561,139.422943 265.954926,127.086807 
	C272.082001,127.086807 277.891357,127.086807 284.482544,127.086807 
	C282.999054,132.341110 281.619568,137.340744 280.174255,142.321304 
	C277.535187,151.415649 274.727386,160.464172 272.293152,169.612473 
	C271.734344,171.712570 271.966980,174.265167 272.579224,176.395752 
	C276.571136,190.287399 280.771637,204.119064 284.888336,217.974976 
	C285.119049,218.751541 285.211700,219.569122 285.432159,220.690903 
	C279.101410,220.690903 273.036530,220.690903 266.252563,220.690903 
	C264.209534,212.101212 262.122772,203.280197 260.009583,194.465515 
	C259.118195,190.747437 258.265503,187.014999 257.189911,183.349335 
	C256.879120,182.290070 255.854996,181.440140 255.157898,180.494232 
	C254.755753,180.663025 254.353622,180.831818 253.951477,181.000595 
	C253.951477,194.081406 253.951477,207.162216 253.951477,220.608276 
	C248.081787,220.608276 242.699524,220.608276 236.957581,220.608276 
	C236.957581,189.595291 236.957581,158.546509 236.957581,127.198662 
	C242.684662,127.198662 248.088303,127.198662 253.931213,127.198662 
	C253.931213,137.528641 253.928680,147.804871 253.933578,158.081116 
	C253.934448,159.912872 253.730392,161.796219 254.113541,163.548004 
	C254.244934,164.148712 255.881393,164.420242 256.965149,164.407730 
M277.668549,138.000168 
	C277.556366,137.131561 277.444153,136.262970 277.308746,135.214798 
	C271.750122,139.101898 271.698883,139.273499 274.932892,142.317215 
	C275.917145,141.061600 276.901398,139.805984 277.668549,138.000168 
M270.923828,139.573639 
	C270.396484,139.542587 269.869110,139.511551 269.341766,139.480515 
	C269.710876,139.671555 270.079987,139.862579 270.923828,139.573639 
z"/>
<path fill="#F4F4F4" opacity="1.000000" stroke="none" 
	d="
M288.717468,171.737610 
	C288.715057,156.727600 288.715057,142.116135 288.715057,127.266693 
	C299.540802,127.266693 309.945496,127.266693 320.621918,127.266693 
	C320.621918,132.318390 320.621918,137.219604 320.621918,142.453339 
	C315.793396,142.453339 311.187714,142.453339 306.206116,142.453339 
	C306.206116,150.301941 306.206116,157.824615 306.206116,165.624588 
	C310.483673,165.624588 314.581818,165.624588 319.000366,165.624588 
	C319.000366,170.793518 319.000366,175.695084 319.000366,181.007263 
	C314.739288,181.007263 310.482117,181.007263 306.044983,181.007263 
	C306.044983,189.177475 306.044983,196.944489 306.044983,205.185333 
	C310.777618,205.185333 315.487701,205.185333 320.510651,205.185333 
	C320.510651,210.552689 320.510651,215.454361 320.510651,220.720917 
	C310.110687,220.720917 299.700562,220.720917 288.719910,220.720917 
	C288.719910,204.605850 288.719910,188.371002 288.717468,171.737610 
M306.091431,172.360367 
	C306.197327,172.405319 306.303192,172.450272 306.409088,172.495224 
	C306.293365,172.313354 306.177643,172.131485 306.012817,171.454514 
	C305.862793,171.183411 305.712769,170.912308 305.562775,170.641205 
	C305.690186,171.116821 305.817596,171.592453 306.091431,172.360367 
M297.902100,173.707870 
	C297.811646,173.657028 297.721191,173.606201 297.630768,173.555359 
	C297.753845,173.703568 297.876923,173.851791 298.007172,174.496506 
	C298.007172,174.496506 297.992676,174.992859 297.425323,175.406784 
	C297.315948,178.911423 299.821106,182.306320 297.588226,186.074509 
	C297.756775,186.087311 297.925354,186.100098 298.791931,185.935120 
	C301.416229,184.374969 303.987915,182.782944 302.998474,179.001556 
	C302.998474,179.001556 303.018311,178.981094 303.651489,178.933945 
	C304.219391,178.288559 304.787262,177.643173 305.355133,176.997787 
	C304.624359,176.597229 303.935699,176.012482 303.154236,175.833969 
	C301.463806,175.447845 299.725830,175.269852 298.513947,174.959503 
	C298.784668,174.801636 299.055359,174.643784 299.326080,174.485916 
	C298.884064,174.323944 298.442017,174.161972 297.902100,173.707870 
M296.175018,170.100998 
	C296.786896,170.250916 297.398804,170.400833 298.535797,170.895187 
	C300.819733,172.170120 302.681091,172.419632 303.335175,168.912918 
	C303.213654,168.929733 303.092102,168.946548 302.461884,168.599197 
	C302.281799,168.007065 302.101746,167.414948 301.990479,166.124512 
	C301.410828,165.573990 300.831177,165.023468 300.090118,163.876389 
	C298.258362,162.879578 296.426636,161.882767 294.594879,160.885941 
	C294.356171,161.876099 294.117462,162.866241 293.913818,163.928772 
	C293.913818,163.928772 293.837891,163.902267 293.146088,164.171982 
	C293.222046,164.873932 293.297974,165.575882 292.649780,166.116776 
	C293.494232,167.400360 294.338715,168.683929 295.231232,169.997803 
	C295.231232,169.997803 295.230591,170.004929 296.175018,170.100998 
M306.134674,214.740662 
	C306.267426,215.512833 306.400177,216.285004 306.624847,217.591705 
	C307.970703,216.106369 309.031097,214.936111 310.150635,213.586349 
	C310.150635,213.586349 310.063416,213.418640 310.796722,213.144241 
	C310.532135,212.444595 310.267548,211.744965 309.769836,210.490829 
	C309.012268,210.334366 308.254700,210.177902 307.037079,209.322632 
	C306.325470,210.000916 305.613861,210.679199 304.897522,211.455826 
	C304.897522,211.455826 304.993652,211.477203 304.437775,211.958359 
	C304.365570,213.065231 304.293365,214.172104 304.221130,215.278976 
	C304.792969,214.886124 305.364838,214.493256 306.134674,214.740662 
M307.795135,174.745117 
	C307.965393,174.620377 308.135620,174.495651 308.305878,174.370926 
	C308.067322,174.397766 307.828766,174.424591 307.795135,174.745117 
M290.409454,165.519379 
	C290.409454,165.519379 290.707550,165.685425 290.707550,165.685425 
	C290.707550,165.685425 290.662659,165.363266 290.409454,165.519379 
M301.297119,162.599579 
	C301.459503,162.626404 301.621918,162.653244 301.784302,162.680084 
	C301.718506,162.573532 301.652679,162.466965 301.297119,162.599579 
z"/>
<path fill="#E9E9E9" opacity="1.000000" stroke="none" 
	d="
M410.145325,300.939270 
	C410.155670,260.173462 410.155670,219.899551 410.155670,179.228760 
	C412.805359,179.228760 415.016449,179.228760 417.489258,179.228760 
	C417.489258,224.108246 417.489258,268.994415 417.489258,314.334229 
	C372.257050,314.334229 327.377319,314.334229 282.189301,314.334229 
	C282.189301,312.129639 282.189301,309.912750 282.189301,307.219849 
	C324.830963,307.219849 367.227386,307.219849 410.135010,307.219849 
	C410.135010,304.979248 410.135010,303.205200 410.145325,300.939270 
z"/>
<path fill="#FCFCFC" opacity="1.000000" stroke="none" 
	d="
M248.510986,392.240845 
	C248.510986,398.695160 248.510986,405.149475 248.510986,411.801758 
	C241.453369,411.801758 234.829254,411.801758 227.427582,411.801758 
	C227.427582,405.977112 227.427582,400.146088 227.427582,394.315094 
	C226.961273,394.313446 226.494965,394.311829 226.028656,394.310181 
	C226.028656,400.021484 226.028656,405.732788 226.028656,411.714478 
	C218.824936,411.714478 212.233643,411.714478 205.298096,411.714478 
	C205.298096,395.508911 205.298096,379.140442 205.298096,362.529358 
	C211.961578,362.529358 218.544434,362.529358 225.806671,362.529358 
	C225.806671,368.499542 225.806671,374.318481 225.806671,380.137451 
	C226.280579,380.145813 226.754501,380.154205 227.228409,380.162567 
	C227.228409,374.392609 227.228409,368.622620 227.228409,362.577087 
	C234.555756,362.577087 241.148300,362.577087 248.452911,362.577087 
	C248.452911,368.650421 248.452911,374.757843 248.303162,381.765198 
	C248.272614,385.857025 248.391800,389.048920 248.510986,392.240845 
z"/>
<path fill="#FCFCFC" opacity="1.000000" stroke="none" 
	d="
M249.900925,381.938660 
	C250.648315,368.430389 256.811493,362.072998 270.389893,361.324219 
	C274.155090,361.116577 278.085602,361.420624 281.744629,362.302124 
	C288.923370,364.031555 294.198364,368.465485 295.011749,376.059204 
	C295.765594,383.097229 295.911255,390.323914 295.224945,397.360229 
	C294.435303,405.455566 289.304535,410.710632 281.230957,412.084442 
	C276.392792,412.907654 271.251526,413.283630 266.428711,412.591278 
	C255.662354,411.045807 250.571533,404.525360 250.038391,392.034790 
	C250.043304,388.090118 249.972122,385.014374 249.900925,381.938660 
M271.867249,384.684387 
	C271.867279,386.659332 271.816345,388.636017 271.882660,390.608734 
	C271.940826,392.338715 272.130554,394.064270 272.262177,395.791779 
	C272.593353,395.734863 272.924500,395.677948 273.255676,395.621033 
	C273.255676,389.938141 273.255676,384.255249 273.255676,378.572357 
	C272.792877,378.582733 272.330078,378.593109 271.867279,378.603485 
	C271.867279,380.324585 271.867279,382.045715 271.867249,384.684387 
z"/>
<path fill="#F8F8F8" opacity="1.000000" stroke="none" 
	d="
M83.006592,55.999043 
	C123.627724,55.999065 163.750671,55.999065 204.209686,55.999065 
	C204.209686,58.442802 204.209686,60.519840 204.209686,63.269665 
	C161.633240,63.269665 119.161835,63.269665 76.193031,63.269665 
	C76.193031,106.330498 76.193031,148.726089 76.193031,191.494064 
	C73.655960,191.494064 71.608612,191.494064 69.150452,191.494064 
	C69.150452,146.630020 69.150452,101.759750 69.150452,55.999020 
	C73.653053,55.999020 78.080727,55.999020 83.006592,55.999043 
z"/>
<path fill="#F8F8F8" opacity="1.000000" stroke="none" 
	d="
M297.312744,405.844543 
	C297.312744,391.228241 297.312744,377.092377 297.312744,361.764648 
	C308.279785,362.358490 318.864410,362.548737 329.353424,363.649658 
	C335.227325,364.266174 338.601501,368.551392 339.412506,374.511292 
	C339.636108,376.154633 339.743134,377.824738 339.757935,379.483856 
	C339.901947,395.622284 336.742523,399.023651 320.643738,400.160004 
	C320.177643,400.192902 319.723389,400.393799 318.920166,400.607880 
	C318.920166,404.212616 318.920166,407.811310 318.920166,411.708252 
	C311.653748,411.708252 304.751678,411.708252 297.312714,411.708252 
	C297.312714,409.891418 297.312714,408.108185 297.312744,405.844543 
z"/>
<path fill="#FBFBFB" opacity="1.000000" stroke="none" 
	d="
M174.215210,361.960327 
	C179.573303,361.922699 184.606445,361.364471 189.448730,362.086456 
	C198.492844,363.434937 202.150070,368.324860 202.056473,377.836243 
	C196.625885,377.836243 191.181839,377.836243 185.737808,377.836243 
	C185.647934,378.106049 185.558060,378.375824 185.468185,378.645630 
	C187.744354,379.679169 190.017487,380.719513 192.297272,381.745026 
	C199.414902,384.946808 202.875534,390.508667 202.999756,398.250702 
	C203.113892,405.364471 200.098999,410.527924 193.073578,411.752960 
	C186.690994,412.865875 179.801285,413.000183 173.443939,411.853607 
	C164.952423,410.322174 162.102966,405.081207 162.936813,395.487610 
	C165.639435,395.487610 168.411224,395.487610 171.183029,395.487610 
	C173.995743,395.487610 176.808456,395.487610 179.621170,395.487610 
	C179.724670,395.183105 179.828171,394.878571 179.931671,394.574066 
	C177.391968,393.343964 174.824173,392.168274 172.317825,390.873596 
	C164.809784,386.995117 162.169464,382.117706 162.927612,373.921692 
	C163.552063,367.171021 167.524261,363.559937 174.215210,361.960327 
z"/>
<path fill="#F7F7F7" opacity="1.000000" stroke="none" 
	d="
M212.254242,189.999268 
	C212.256866,168.884888 212.256866,148.270660 212.256866,127.242371 
	C217.875854,127.242371 223.275024,127.242371 229.046417,127.242371 
	C229.046417,158.118774 229.046417,189.174240 229.046417,220.620239 
	C223.894135,220.620239 218.511703,220.620239 212.251633,220.620239 
	C212.251633,210.656921 212.251633,200.578186 212.254242,189.999268 
M219.932693,158.450424 
	C219.932693,158.450424 219.537918,158.750031 218.707962,158.738037 
	C216.072433,160.449234 216.072433,160.449234 219.984299,164.166534 
	C219.984299,163.413574 219.984299,162.777100 220.445618,162.069244 
	C220.445618,162.069244 220.908417,162.128769 221.085236,162.749893 
	C221.373428,163.550995 221.661636,164.352097 221.495972,165.638885 
	C220.325943,166.718063 219.155914,167.797241 217.985886,168.876404 
	C218.392075,169.324814 218.798279,169.773224 219.204468,170.221634 
	C220.562393,169.423920 221.920334,168.626205 223.914505,167.791061 
	C223.607208,167.013657 223.299896,166.236252 222.986084,165.510178 
	C222.986084,165.510178 223.037674,165.514114 223.663452,164.779236 
	C223.454376,163.867615 223.245300,162.956009 223.547928,161.880692 
	C223.406693,161.520401 223.265472,161.160126 223.275604,160.489243 
	C223.275604,160.489243 223.203598,160.151291 223.430389,159.360046 
	C223.131302,158.922302 222.832199,158.484573 222.203903,157.668488 
	C221.611572,157.916779 221.019241,158.165070 219.932693,158.450424 
z"/>
<path fill="#E8E8E8" opacity="1.000000" stroke="none" 
	d="
M212.000153,245.340683 
	C241.773254,245.340698 271.046356,245.340698 300.770782,245.340698 
	C300.867310,247.089157 300.951660,248.617813 301.046997,250.345276 
	C260.556976,250.345276 220.490494,250.345276 180.175720,250.345276 
	C180.175720,248.765366 180.175720,247.335632 180.175720,245.340668 
	C190.642105,245.340668 201.071136,245.340668 212.000153,245.340683 
z"/>
<path fill="#F4F4F4" opacity="1.000000" stroke="none" 
	d="
M238.566315,95.276413 
	C240.351105,96.852623 242.696716,98.295486 242.880386,99.974823 
	C243.409927,104.816162 243.067398,109.752892 243.067398,114.652145 
	C242.570175,114.847534 242.072952,115.042931 241.575729,115.238327 
	C241.047729,113.965225 240.444016,112.717216 240.011719,111.412415 
	C239.519882,109.927879 239.181152,108.392616 238.775864,106.879402 
	C238.183212,106.950317 237.590561,107.021233 236.997910,107.092155 
	C236.997910,109.101990 237.130386,111.125542 236.924484,113.114052 
	C236.854462,113.790260 235.931839,114.378189 235.398804,115.006447 
	C234.891327,114.354561 233.956604,113.711243 233.943344,113.049446 
	C233.827469,107.269463 233.876373,101.486168 233.876373,95.251083 
	C235.587524,95.251083 236.863617,95.251083 238.566315,95.276413 
z"/>
<path fill="#E2E2E2" opacity="1.000000" stroke="none" 
	d="
M226.795044,106.842331 
	C226.612167,114.752563 226.028152,115.243492 217.351807,114.919197 
	C217.351807,108.599495 217.351807,102.252380 217.351807,95.879555 
	C225.488754,93.932068 226.793793,95.369507 226.795044,106.842331 
M220.291016,99.177193 
	C220.291016,103.413307 220.291016,107.649414 220.291016,112.398468 
	C221.638290,111.853951 222.907196,111.593376 222.914810,111.300034 
	C223.021118,107.206940 222.988464,103.108131 222.838577,99.016258 
	C222.830521,98.796165 221.484558,98.625084 220.291016,99.177193 
z"/>
<path fill="#CECECE" opacity="1.000000" stroke="none" 
	d="
M254.993713,98.014526 
	C251.987122,97.749443 250.466370,98.744461 250.747025,102.137718 
	C251.032272,105.586288 250.944748,109.086288 250.711411,112.542908 
	C250.651886,113.424728 249.422440,114.227570 248.730515,115.066696 
	C248.206635,114.227478 247.277817,113.410278 247.230759,112.545135 
	C247.051453,109.247887 247.392197,105.910698 247.052307,102.638954 
	C246.891159,101.087898 245.605530,99.663849 244.884140,98.156044 
	C244.574890,97.509651 244.035248,96.600830 244.266510,96.163689 
	C244.549789,95.628197 245.525238,95.199287 246.212311,95.182968 
	C248.852875,95.120300 251.497757,95.241013 254.622223,95.697067 
	C255.066833,96.738716 255.030273,97.376617 254.993713,98.014526 
z"/>
<path fill="#E9E9E9" opacity="1.000000" stroke="none" 
	d="
M255.004776,98.409294 
	C255.030273,97.376617 255.066833,96.738716 255.075958,95.781799 
	C256.733429,97.413040 258.418335,99.363297 260.006470,101.201546 
	C260.768860,99.566879 261.888306,97.166588 263.007782,94.766289 
	C263.625336,95.021568 264.242889,95.276848 264.860443,95.532127 
	C264.241638,97.818314 263.523987,100.083275 263.027527,102.395729 
	C262.305542,105.758842 261.809235,109.170799 261.068146,112.529152 
	C260.871033,113.422432 260.131744,114.196075 259.641388,115.024658 
	C259.081146,114.269348 258.210205,113.587219 258.012207,112.746582 
	C256.922546,108.120483 255.997421,103.455627 255.004776,98.409294 
z"/>
<path fill="#CECECE" opacity="1.000000" stroke="none" 
	d="
M228.102448,105.981255 
	C228.104843,102.837410 227.964264,100.166634 228.193832,97.528046 
	C228.265869,96.700180 229.333542,95.958939 229.945496,95.178040 
	C230.531662,95.995560 231.598160,96.797585 231.625107,97.633141 
	C231.785706,102.612389 231.824249,107.604515 231.608170,112.579475 
	C231.564713,113.579811 230.248123,114.524849 229.518524,115.495377 
	C229.046494,115.269798 228.574463,115.044220 228.102432,114.818649 
	C228.102432,112.034683 228.102432,109.250717 228.102448,105.981255 
z"/>
<path fill="#656565" opacity="1.000000" stroke="none" 
	d="
M249.659424,381.978088 
	C249.972122,385.014374 250.043304,388.090118 250.004730,391.614990 
	C249.894958,392.064117 249.411423,392.008423 249.411423,392.008423 
	C249.411423,392.008423 248.998917,392.267029 248.754944,392.253937 
	C248.391800,389.048920 248.272614,385.857025 248.332031,382.217346 
	C248.862564,381.671356 249.164993,381.754028 249.659424,381.978088 
z"/>
<path fill="#010101" opacity="1.000000" stroke="none" 
	d="
M178.936066,203.392441 
	C178.950226,195.652039 178.950226,188.358017 178.950226,181.114914 
	C187.283661,179.448410 189.282196,180.974014 189.290436,188.817383 
	C189.294632,192.813766 189.514694,196.836960 189.104568,200.792816 
	C188.950089,202.282837 187.431290,204.651947 186.289154,204.806412 
	C183.920349,205.126724 181.387375,204.233246 178.936066,203.392441 
z"/>
<path fill="#090909" opacity="1.000000" stroke="none" 
	d="
M188.638763,148.606033 
	C188.648682,151.709412 188.672714,154.375763 188.648346,157.041702 
	C188.572662,165.321609 187.687164,166.159317 179.103760,165.849030 
	C179.103760,158.281586 179.103760,150.698746 179.103760,143.117813 
	C186.250778,142.115128 187.398819,142.726669 188.638763,148.606033 
z"/>
<path fill="#656565" opacity="1.000000" stroke="none" 
	d="
M187.598587,212.016769 
	C187.453506,210.446701 187.308426,208.876648 187.095337,206.570724 
	C189.502716,207.525482 191.038803,208.134705 192.020248,209.057907 
	C190.633392,210.255386 189.801193,211.138885 188.626007,212.113281 
	C188.054886,212.141708 187.826736,212.079239 187.598587,212.016769 
z"/>
<path fill="#909090" opacity="1.000000" stroke="none" 
	d="
M193.098282,212.142715 
	C193.028503,212.791534 193.125671,213.525925 192.847809,214.068100 
	C192.478897,214.787994 191.817398,215.357925 191.281616,215.992294 
	C190.997726,215.226379 190.713852,214.460464 190.145813,213.249054 
	C189.830276,212.630981 189.798904,212.458405 190.177765,212.286682 
	C191.118408,212.185989 191.648804,212.084442 192.416870,211.977509 
	C192.654510,211.972137 193.098282,212.142715 193.098282,212.142715 
z"/>
<path fill="#E2E2E2" opacity="1.000000" stroke="none" 
	d="
M192.179199,211.982910 
	C191.648804,212.084442 191.118408,212.185989 189.980011,212.215118 
	C189.372025,212.142700 188.968994,212.022369 188.968994,212.022369 
	C189.801193,211.138885 190.633392,210.255386 191.765350,209.450226 
	C192.065094,209.528564 192.004944,209.503189 192.033081,209.899490 
	C192.100540,210.858170 192.139862,211.420532 192.179199,211.982910 
z"/>
<path fill="#1C1C1C" opacity="1.000000" stroke="none" 
	d="
M192.416855,211.977524 
	C192.139862,211.420532 192.100540,210.858170 192.010529,209.875885 
	C192.521378,210.205185 193.082886,210.954422 193.371338,211.923187 
	C193.098282,212.142715 192.654510,211.972137 192.416855,211.977524 
z"/>
<path fill="#1C1C1C" opacity="1.000000" stroke="none" 
	d="
M188.626007,212.113281 
	C188.968994,212.022369 189.372025,212.142700 189.569778,212.214264 
	C189.798904,212.458405 189.830276,212.630981 190.068634,212.965942 
	C189.539108,212.904434 188.802597,212.680511 187.832336,212.236679 
	C187.826736,212.079239 188.054886,212.141708 188.626007,212.113281 
z"/>
<path fill="#E2E2E2" opacity="1.000000" stroke="none" 
	d="
M277.777100,138.275269 
	C276.901398,139.805984 275.917145,141.061600 274.932861,142.317200 
	C271.698883,139.273499 271.750122,139.101898 277.308746,135.214798 
	C277.444153,136.262970 277.556366,137.131561 277.777100,138.275269 
z"/>
<path fill="#656565" opacity="1.000000" stroke="none" 
	d="
M270.686462,139.813629 
	C270.079987,139.862579 269.710876,139.671555 269.341766,139.480515 
	C269.869110,139.511551 270.396484,139.542587 270.686462,139.813629 
z"/>
<path fill="#E2E2E2" opacity="1.000000" stroke="none" 
	d="
M297.865295,185.888458 
	C299.821106,182.306320 297.315948,178.911423 297.712646,175.203400 
	C298.000000,175.000000 298.007324,175.006714 298.007324,175.006714 
	C299.725830,175.269852 301.463806,175.447845 303.154236,175.833969 
	C303.935699,176.012482 304.624359,176.597229 305.355133,176.997772 
	C304.787262,177.643173 304.219391,178.288559 303.311951,178.707535 
	C302.668549,178.238434 302.364655,177.995743 302.060791,177.753052 
	C301.919342,178.026031 301.777924,178.299011 301.636475,178.571991 
	C302.083618,178.722031 302.530731,178.872070 302.977875,179.022125 
	C303.987915,182.782944 301.416229,184.374969 298.388245,185.965363 
	C297.984558,185.995621 297.865295,185.888458 297.865295,185.888458 
z"/>
<path fill="#1C1C1C" opacity="1.000000" stroke="none" 
	d="
M300.251526,164.472961 
	C300.831177,165.023468 301.410828,165.573990 301.586426,166.475677 
	C299.884521,167.283417 298.586700,167.740021 296.924377,168.290634 
	C296.327209,168.822083 296.094513,169.259537 295.680603,169.735504 
	C295.499329,169.774033 295.183167,169.967514 295.183167,169.967514 
	C294.338715,168.683929 293.494232,167.400360 293.322388,166.027435 
	C293.942596,165.259491 293.890259,164.580887 293.837891,163.902267 
	C293.837891,163.902267 293.913818,163.928772 294.145691,163.938553 
	C295.148163,164.868851 295.918762,165.789368 296.194733,166.119049 
	C297.815948,165.461227 299.033752,164.967087 300.251526,164.472961 
z"/>
<path fill="#909090" opacity="1.000000" stroke="none" 
	d="
M300.170837,164.174683 
	C299.033752,164.967087 297.815948,165.461227 296.194733,166.119049 
	C295.918762,165.789368 295.148163,164.868851 294.128174,163.902374 
	C294.117462,162.866241 294.356171,161.876099 294.594879,160.885941 
	C296.426636,161.882767 298.258362,162.879578 300.170837,164.174683 
z"/>
<path fill="#E2E2E2" opacity="1.000000" stroke="none" 
	d="
M297.288849,168.196625 
	C298.586700,167.740021 299.884521,167.283417 301.552002,166.824829 
	C302.101746,167.414948 302.281799,168.007065 302.733704,168.800903 
	C303.005493,169.002594 303.045441,169.036682 303.045441,169.036682 
	C302.681091,172.419632 300.819733,172.170120 298.383423,170.401855 
	C297.917023,169.337875 297.602936,168.767242 297.288849,168.196625 
z"/>
<path fill="#CECECE" opacity="1.000000" stroke="none" 
	d="
M304.993652,211.477203 
	C304.993652,211.477203 304.897522,211.455826 305.244629,211.242218 
	C306.226868,210.692886 306.862000,210.357162 307.497131,210.021423 
	C308.254700,210.177902 309.012268,210.334366 309.776123,211.053146 
	C309.876068,212.216522 309.969727,212.817581 310.063416,213.418640 
	C310.063416,213.418640 310.150635,213.586349 309.770935,213.687378 
	C308.291687,213.588608 307.192078,213.388824 305.767578,213.020554 
	C305.292999,212.393768 305.143341,211.935486 304.993652,211.477203 
z"/>
<path fill="#656565" opacity="1.000000" stroke="none" 
	d="
M306.092499,213.189041 
	C307.192078,213.388824 308.291687,213.588608 309.741364,213.777130 
	C309.031097,214.936111 307.970703,216.106369 306.624847,217.591705 
	C306.400177,216.285004 306.267426,215.512833 306.073853,214.192566 
	C306.013031,213.644455 306.092499,213.189041 306.092499,213.189041 
z"/>
<path fill="#909090" opacity="1.000000" stroke="none" 
	d="
M305.767578,213.020554 
	C306.092499,213.189041 306.013031,213.644455 305.974854,213.872421 
	C305.364838,214.493256 304.792969,214.886124 304.221130,215.278976 
	C304.293365,214.172104 304.365570,213.065231 304.715729,211.717773 
	C305.143341,211.935486 305.292999,212.393768 305.767578,213.020554 
z"/>
<path fill="#656565" opacity="1.000000" stroke="none" 
	d="
M307.267090,209.672028 
	C306.862000,210.357162 306.226868,210.692886 305.247009,211.193054 
	C305.613861,210.679199 306.325470,210.000916 307.267090,209.672028 
z"/>
<path fill="#656565" opacity="1.000000" stroke="none" 
	d="
M310.430054,213.281433 
	C309.969727,212.817581 309.876068,212.216522 309.892670,211.330399 
	C310.267548,211.744965 310.532135,212.444595 310.430054,213.281433 
z"/>
<path fill="#656565" opacity="1.000000" stroke="none" 
	d="
M296.924377,168.290619 
	C297.602936,168.767242 297.917023,169.337875 298.120880,170.229645 
	C297.398804,170.400833 296.786896,170.250916 295.854858,169.963104 
	C295.534668,169.825195 295.861847,169.696991 295.861847,169.696991 
	C296.094513,169.259537 296.327209,168.822083 296.924377,168.290619 
z"/>
<path fill="#E2E2E2" opacity="1.000000" stroke="none" 
	d="
M307.692688,174.598267 
	C307.828766,174.424591 308.067322,174.397766 308.305878,174.370926 
	C308.135620,174.495651 307.965393,174.620377 307.692688,174.598267 
z"/>
<path fill="#E2E2E2" opacity="1.000000" stroke="none" 
	d="
M297.996338,174.996429 
	C297.992676,174.992859 298.007172,174.496506 298.003601,174.248260 
	C298.442017,174.161972 298.884064,174.323944 299.326080,174.485916 
	C299.055359,174.643784 298.784668,174.801636 298.260620,174.983109 
	C298.007324,175.006714 298.000000,175.000000 297.996338,174.996429 
z"/>
<path fill="#E2E2E2" opacity="1.000000" stroke="none" 
	d="
M305.944977,172.068085 
	C305.817596,171.592453 305.690186,171.116821 305.562775,170.641205 
	C305.712769,170.912308 305.862793,171.183411 306.006470,171.730026 
	C306.000092,172.005539 305.944977,172.068085 305.944977,172.068085 
z"/>
<path fill="#909090" opacity="1.000000" stroke="none" 
	d="
M293.492004,164.037125 
	C293.890259,164.580887 293.942596,165.259491 293.684448,166.107971 
	C293.297974,165.575882 293.222046,164.873932 293.492004,164.037125 
z"/>
<path fill="#E2E2E2" opacity="1.000000" stroke="none" 
	d="
M298.039246,186.054260 
	C297.925354,186.100098 297.756775,186.087311 297.726746,185.981476 
	C297.865295,185.888458 297.984558,185.995621 298.039246,186.054260 
z"/>
<path fill="#E2E2E2" opacity="1.000000" stroke="none" 
	d="
M297.951050,173.853943 
	C297.876923,173.851791 297.753845,173.703568 297.630768,173.555359 
	C297.721191,173.606201 297.811646,173.657028 297.951050,173.853943 
z"/>
<path fill="#E2E2E2" opacity="1.000000" stroke="none" 
	d="
M306.031006,171.977570 
	C306.177643,172.131485 306.293365,172.313354 306.409088,172.495224 
	C306.303192,172.450272 306.197327,172.405319 306.018188,172.214233 
	C305.944977,172.068085 306.000092,172.005539 306.031006,171.977570 
z"/>
<path fill="#E2E2E2" opacity="1.000000" stroke="none" 
	d="
M295.680603,169.735504 
	C295.861847,169.696991 295.534668,169.825195 295.382629,169.915070 
	C295.230591,170.004929 295.231232,169.997803 295.207214,169.982666 
	C295.183167,169.967514 295.499329,169.774033 295.680603,169.735504 
z"/>
<path fill="#E2E2E2" opacity="1.000000" stroke="none" 
	d="
M302.988037,168.982971 
	C303.092102,168.946548 303.213654,168.929733 303.190308,168.974792 
	C303.045441,169.036682 303.005493,169.002594 302.988037,168.982971 
z"/>
<path fill="#909090" opacity="1.000000" stroke="none" 
	d="
M290.536072,165.441315 
	C290.662659,165.363266 290.707550,165.685425 290.707550,165.685425 
	C290.707550,165.685425 290.409454,165.519379 290.536072,165.441315 
z"/>
<path fill="#909090" opacity="1.000000" stroke="none" 
	d="
M301.442017,162.479996 
	C301.652679,162.466965 301.718506,162.573532 301.784302,162.680084 
	C301.621918,162.653244 301.459503,162.626404 301.442017,162.479996 
z"/>
<path fill="#1C1C1C" opacity="1.000000" stroke="none" 
	d="
M271.867249,384.225616 
	C271.867279,382.045715 271.867279,380.324585 271.867279,378.603485 
	C272.330078,378.593109 272.792877,378.582733 273.255676,378.572357 
	C273.255676,384.255249 273.255676,389.938141 273.255676,395.621033 
	C272.924500,395.677948 272.593353,395.734863 272.262177,395.791779 
	C272.130554,394.064270 271.940826,392.338715 271.882660,390.608734 
	C271.816345,388.636017 271.867279,386.659332 271.867249,384.225616 
z"/>
<path fill="#E9E9E9" opacity="1.000000" stroke="none" 
	d="
M223.037674,165.514114 
	C223.037674,165.514114 222.986084,165.510178 223.017883,165.881699 
	C223.125885,166.778320 223.202087,167.303406 223.278290,167.828491 
	C221.920334,168.626205 220.562393,169.423920 219.204468,170.221634 
	C218.798279,169.773224 218.392075,169.324814 217.985886,168.876404 
	C219.155914,167.797241 220.325943,166.718063 221.983536,165.520294 
	C222.659973,165.439178 222.848831,165.476654 223.037674,165.514114 
z"/>
<path fill="#909090" opacity="1.000000" stroke="none" 
	d="
M223.203598,160.151291 
	C223.203598,160.151291 223.275604,160.489243 222.856506,160.788971 
	C221.619705,161.439316 220.802002,161.789963 219.984299,162.140610 
	C219.984299,162.777100 219.984299,163.413574 219.984299,164.166534 
	C216.072433,160.449234 216.072433,160.449234 219.411118,159.037292 
	C221.144043,159.608124 222.173828,159.879700 223.203598,160.151291 
z"/>
<path fill="#909090" opacity="1.000000" stroke="none" 
	d="
M223.350555,165.146667 
	C222.848831,165.476654 222.659973,165.439178 222.210464,165.277466 
	C221.661636,164.352097 221.373428,163.550995 221.347885,162.355469 
	C222.085770,161.988831 222.560989,162.016617 223.036224,162.044388 
	C223.245300,162.956009 223.454376,163.867615 223.350555,165.146667 
z"/>
<path fill="#909090" opacity="1.000000" stroke="none" 
	d="
M223.596405,167.809784 
	C223.202087,167.303406 223.125885,166.778320 223.021133,165.856033 
	C223.299896,166.236252 223.607208,167.013657 223.596405,167.809784 
z"/>
<path fill="#1C1C1C" opacity="1.000000" stroke="none" 
	d="
M223.292084,161.962540 
	C222.560989,162.016617 222.085770,161.988831 221.259476,162.044922 
	C220.908417,162.128769 220.445618,162.069244 220.214966,162.104919 
	C220.802002,161.789963 221.619705,161.439316 222.780823,160.944275 
	C223.265472,161.160126 223.406693,161.520401 223.292084,161.962540 
z"/>
<path fill="#656565" opacity="1.000000" stroke="none" 
	d="
M223.316986,159.755676 
	C222.173828,159.879700 221.144043,159.608124 219.826096,159.043289 
	C219.537918,158.750031 219.932693,158.450424 220.740662,158.529694 
	C221.876785,158.421600 222.204941,158.234222 222.533096,158.046844 
	C222.832199,158.484573 223.131302,158.922302 223.316986,159.755676 
z"/>
<path fill="#909090" opacity="1.000000" stroke="none" 
	d="
M222.368500,157.857666 
	C222.204941,158.234222 221.876785,158.421600 220.987762,158.511169 
	C221.019241,158.165070 221.611572,157.916779 222.368500,157.857666 
z"/>
<path fill="#1C1C1C" opacity="1.000000" stroke="none" 
	d="
M220.526199,98.804184 
	C221.484558,98.625084 222.830521,98.796165 222.838577,99.016258 
	C222.988464,103.108131 223.021118,107.206940 222.914810,111.300034 
	C222.907196,111.593376 221.638290,111.853951 220.291016,112.398468 
	C220.291016,107.649414 220.291016,103.413307 220.526199,98.804184 
z"/>
<path fill="#F4F4F4" opacity="1.000000" stroke="none" 
	d="
M302.988159,179.011841 
	C302.530731,178.872070 302.083618,178.722031 301.636475,178.571991 
	C301.777924,178.299011 301.919342,178.026031 302.060791,177.753052 
	C302.364655,177.995743 302.668549,178.238434 302.995361,178.731110 
	C303.018311,178.981094 302.998474,179.001556 302.988159,179.011841 
z"/>
</svg>